PathFileType  4	(X/Y/Z) C:\Users\wagnerel85475\Documents\Thesis\opencap-core\Data\3375ffbc-daeb-4a43-b4f7-ac9899cd4c71\MarkerData\PreAugmentation
DataRate	CameraRate	NumFrames	NumMarkers	Units	OrigDataRate	OrigDataStartFrame	OrigNumFrames
60.0	60.0	9	20	m	60.0	142	282
Frame#	Time	Neck			RShoulder			RElbow			RWrist			LShoulder			LElbow			LWrist			midHip			RHip			RKnee			RAnkle			LHip			LKnee			LAnkle			LBigToe			LSmallToe			LHeel			RBigToe			RSmallToe			RHeel			
		X1	Y1	Z1	X2	Y2	Z2	X3	Y3	Z3	X4	Y4	Z4	X5	Y5	Z5	X6	Y6	Z6	X7	Y7	Z7	X8	Y8	Z8	X9	Y9	Z9	X10	Y10	Z10	X11	Y11	Z11	X12	Y12	Z12	X13	Y13	Z13	X14	Y14	Z14	X15	Y15	Z15	X16	Y16	Z16	X17	Y17	Z17	X18	Y18	Z18	X19	Y19	Z19	X20	Y20	Z20	

142	2.3500000	0.9087200	1.2541100	-0.1304300	0.8905000	1.2497800	0.0467800	0.7524600	0.9908400	0.1887100	0.8037100	0.7014200	0.2325800	0.9249500	1.2521300	-0.3148300	0.7636900	0.9670000	-0.4214000	0.7934600	0.6767400	-0.4669300	0.6373600	0.7579600	-0.1264300	0.6224300	0.7613700	-0.0070300	0.8281800	0.3356300	0.0020500	0.6872500	-0.1845500	0.0034300	0.6335800	0.7572400	-0.2417100	0.7683800	0.3255800	-0.2955000	0.6871800	-0.1705200	-0.3147800	0.8933100	-0.2213700	-0.3421900	0.8370400	-0.2202300	-0.3876100	0.6404600	-0.2241100	-0.3116000	0.9000300	-0.2294600	0.0416700	0.8357600	-0.2251400	0.0780600	0.6278100	-0.2306900	-0.0167100
143	2.3666667	0.9080000	1.2646000	-0.1305900	0.8738400	1.2649700	0.0480500	0.7603400	1.0076400	0.1836500	0.7955900	0.7233000	0.2378300	0.9245200	1.2652700	-0.3147600	0.7628200	0.9856200	-0.4208300	0.7858400	0.6830700	-0.4712100	0.6474900	0.7660600	-0.1226700	0.6331700	0.7663800	-0.0115400	0.8181300	0.3375100	-0.0004200	0.6876000	-0.1811600	0.0027600	0.6426900	0.7678800	-0.2457100	0.7671000	0.3320500	-0.2956100	0.6870600	-0.1702300	-0.3148300	0.8861500	-0.2240900	-0.3461700	0.8368700	-0.2199300	-0.3877700	0.6399500	-0.2204700	-0.3119200	0.8992500	-0.2300700	0.0415700	0.8352600	-0.2252000	0.0779900	0.6278700	-0.2279800	-0.0173300
144	2.3833333	0.8990400	1.2864000	-0.1343000	0.8726900	1.2839200	0.0475300	0.7611700	1.0215100	0.1832000	0.7954300	0.7376700	0.2376100	0.9241400	1.2839200	-0.3151300	0.7629300	0.9985500	-0.4212000	0.7842100	0.7050500	-0.4713900	0.6559500	0.7905200	-0.1265900	0.6399100	0.7803200	-0.0072600	0.8170100	0.3410100	-0.0001500	0.6882600	-0.1774200	0.0021600	0.6618200	0.7936900	-0.2459800	0.7682300	0.3326400	-0.2955500	0.6867000	-0.1741700	-0.3153600	0.8857400	-0.2240600	-0.3458800	0.8291000	-0.2229600	-0.3914500	0.6303400	-0.2237100	-0.3085300	0.8924200	-0.2325500	0.0458500	0.8278600	-0.2281500	0.0823900	0.6280600	-0.2279600	-0.0172500
145	2.4000000	0.8817500	1.2982300	-0.1342400	0.8653600	1.2973800	0.0521700	0.7425100	1.0289000	0.1852300	0.7951000	0.7515200	0.2374100	0.9073100	1.2951100	-0.3154000	0.7614700	1.0127900	-0.4212600	0.7845100	0.7229400	-0.4717800	0.6656900	0.7872800	-0.1228500	0.6627300	0.7824900	-0.0005500	0.8176000	0.3377200	-0.0004500	0.6891600	-0.1737100	0.0013900	0.6614800	0.7882500	-0.2457200	0.7594200	0.3336400	-0.2923200	0.6870200	-0.1703500	-0.3148300	0.8859800	-0.2241600	-0.3461500	0.8286800	-0.2230200	-0.3914600	0.6398700	-0.2206300	-0.3119500	0.8995800	-0.2300700	0.0415600	0.8353200	-0.2250500	0.0779600	0.6284800	-0.2253200	-0.0180200
146	2.4166667	0.8729700	1.3077900	-0.1377100	0.8644800	1.3102200	0.0517900	0.7581800	1.0420100	0.1760600	0.7948300	0.7586000	0.2370600	0.9071400	1.3051000	-0.3155000	0.7614200	1.0258500	-0.4218300	0.7833900	0.7267500	-0.4714700	0.6664600	0.7956300	-0.1230500	0.6901500	0.7925900	0.0019200	0.8085700	0.3358300	-0.0039200	0.6891700	-0.1737000	0.0014400	0.6620000	0.7993700	-0.2461200	0.7588700	0.3455800	-0.2916500	0.6870200	-0.1704600	-0.3148500	0.8854600	-0.2242500	-0.3458300	0.8288300	-0.2231200	-0.3914100	0.6400500	-0.2203100	-0.3122700	0.9002400	-0.2296100	0.0417000	0.8357700	-0.2250800	0.0780900	0.6286600	-0.2255000	-0.0179500
147	2.4333333	0.8556600	1.3150200	-0.1376800	0.8481900	1.3147900	0.0531000	0.7492300	1.0534000	0.1804900	0.7944000	0.7663900	0.2373900	0.8901500	1.3149800	-0.3232500	0.7516500	1.0362300	-0.4179200	0.7751300	0.7327800	-0.4681100	0.6768100	0.7991000	-0.1201300	0.7129600	0.8067100	-0.0080800	0.7989900	0.3405900	-0.0071100	0.6891300	-0.1738300	0.0014500	0.6700000	0.7998300	-0.2502200	0.7666200	0.3470800	-0.2954800	0.6867400	-0.1741000	-0.3153600	0.8862800	-0.2308000	-0.3460800	0.8367500	-0.2201900	-0.3876900	0.6303700	-0.2238900	-0.3082000	0.8991700	-0.2328000	0.0422500	0.8351000	-0.2282200	0.0786500	0.6277300	-0.2279400	-0.0172600
148	2.4500000	0.8384700	1.3260800	-0.1371300	0.8469500	1.3260300	0.0527900	0.7395400	1.0634100	0.1773900	0.7849700	0.7802700	0.2346900	0.8812500	1.3258500	-0.3275700	0.7514800	1.0478900	-0.4182500	0.7819500	0.7447500	-0.4639500	0.6850600	0.8014800	-0.1239200	0.7080500	0.8086600	-0.0068200	0.7885600	0.3420600	-0.0103200	0.6892700	-0.1809800	0.0015000	0.6800800	0.8053800	-0.2465400	0.7580500	0.3423200	-0.2909800	0.6867800	-0.1743100	-0.3153900	0.8936000	-0.2249300	-0.3428200	0.8375300	-0.2233900	-0.3882300	0.6303900	-0.2268400	-0.3091700	0.8997700	-0.2323600	0.0424300	0.8355400	-0.2282200	0.0788200	0.6278800	-0.2281100	-0.0171400
149	2.4666667	0.8376900	1.3378600	-0.1374800	0.8475400	1.3435600	0.0529500	0.7395300	1.0693000	0.1769300	0.7845100	0.7871000	0.2345100	0.8722500	1.3331600	-0.3316800	0.7425500	1.0581700	-0.4219900	0.7745400	0.7545600	-0.4685600	0.6938400	0.8168700	-0.1280900	0.7259900	0.8252200	-0.0156200	0.7785700	0.3468800	-0.0127000	0.6876400	-0.1811500	0.0028700	0.6888100	0.8108900	-0.2502600	0.7647800	0.3402700	-0.2867900	0.6865200	-0.1708800	-0.3160300	0.8940200	-0.2244100	-0.3418100	0.8369900	-0.2200800	-0.3877200	0.6302900	-0.2269800	-0.3088900	0.8914800	-0.2356900	0.0465200	0.8359700	-0.2279800	0.0859700	0.6275800	-0.2306600	-0.0165500
150	2.4833333	0.8371300	1.3497600	-0.1375000	0.8385500	1.3553800	0.0568100	0.7295100	1.0763100	0.1738500	0.7919600	0.7981800	0.2294700	0.8636800	1.3413900	-0.3358800	0.7421700	1.0660100	-0.4147400	0.7733400	0.7694400	-0.4687400	0.7030500	0.8155200	-0.1323500	0.7336100	0.8267000	-0.0199800	0.7783600	0.3469300	-0.0130400	0.6876400	-0.1811000	0.0028400	0.7077900	0.8132800	-0.2505600	0.7572300	0.3387900	-0.2828000	0.6866500	-0.1710500	-0.3160100	0.8936300	-0.2244500	-0.3414900	0.8373100	-0.2201500	-0.3876000	0.6398500	-0.2233900	-0.3129400	0.8919900	-0.2354500	0.0464800	0.8275600	-0.2313000	0.0830500	0.6275900	-0.2307300	-0.0165200
